<svg xmlns="http://www.w3.org/2000/svg" width="900" height="280" viewBox="0 0 900 280"><defs><linearGradient id="bg" x1="0%" y1="0%" x2="100%" y2="100%"><stop offset="0%" style="stop-color:#0f0f14"/><stop offset="100%" style="stop-color:#13101e"/></linearGradient><linearGradient id="accent" x1="0%" y1="0%" x2="100%" y2="0%"><stop offset="0%" style="stop-color:#7c6af7"/><stop offset="100%" style="stop-color:#00ddd6"/></linearGradient></defs><rect width="900" height="280" fill="url(#bg)" rx="12"/><line x1="0" y1="56" x2="900" y2="56" stroke="#1e1e2a" stroke-width="1"/><line x1="0" y1="112" x2="900" y2="112" stroke="#1e1e2a" stroke-width="1"/><line x1="0" y1="168" x2="900" y2="168" stroke="#1e1e2a" stroke-width="1"/><line x1="0" y1="224" x2="900" y2="224" stroke="#1e1e2a" stroke-width="1"/><line x1="90" y1="0" x2="90" y2="280" stroke="#1e1e2a" stroke-width="1"/><line x1="180" y1="0" x2="180" y2="280" stroke="#1e1e2a" stroke-width="1"/><line x1="270" y1="0" x2="270" y2="280" stroke="#1e1e2a" stroke-width="1"/><line x1="360" y1="0" x2="360" y2="280" stroke="#1e1e2a" stroke-width="1"/><line x1="450" y1="0" x2="450" y2="280" stroke="#1e1e2a" stroke-width="1"/><line x1="540" y1="0" x2="540" y2="280" stroke="#1e1e2a" stroke-width="1"/><line x1="630" y1="0" x2="630" y2="280" stroke="#1e1e2a" stroke-width="1"/><line x1="720" y1="0" x2="720" y2="280" stroke="#1e1e2a" stroke-width="1"/><line x1="810" y1="0" x2="810" y2="280" stroke="#1e1e2a" stroke-width="1"/><circle cx="450" cy="140" r="18" fill="none" stroke="#7c6af7" stroke-width="0.5" opacity="0.3"/><circle cx="450" cy="140" r="10" fill="none" stroke="#7c6af7" stroke-width="0.8" opacity="0.5"/><circle cx="450" cy="140" r="3.5" fill="#7c6af7" opacity="0.9"/><line x1="420" y1="140" x2="440" y2="140" stroke="#7c6af7" stroke-width="0.8" opacity="0.6"/><line x1="460" y1="140" x2="480" y2="140" stroke="#7c6af7" stroke-width="0.8" opacity="0.6"/><line x1="450" y1="110" x2="450" y2="128" stroke="#7c6af7" stroke-width="0.8" opacity="0.6"/><line x1="450" y1="152" x2="450" y2="170" stroke="#7c6af7" stroke-width="0.8" opacity="0.6"/><text x="18" y="52" font-family="monospace" font-size="8" fill="#2a2a40">26.1445 N</text><text x="18" y="224" font-family="monospace" font-size="8" fill="#2a2a40">91.7362 E</text><text x="820" y="52" font-family="monospace" font-size="8" fill="#2a2a40">28.7041 N</text><text x="820" y="224" font-family="monospace" font-size="8" fill="#2a2a40">77.1025 E</text><text x="450" y="96" font-family="monospace" font-size="11" fill="#383850" text-anchor="middle" letter-spacing="6">// INDEPENDENT CONTENT STUDIO</text><text x="450" y="210" font-family="monospace" font-size="28" font-weight="bold" fill="url(#accent)" text-anchor="middle" letter-spacing="3">koordinatesworld</text><text x="450" y="238" font-family="monospace" font-size="10" fill="#404058" text-anchor="middle" letter-spacing="4">where roots meet coordinates</text><rect width="900" height="280" fill="none" stroke="#7c6af7" stroke-width="0.5" rx="12" opacity="0.25"/></svg>
